<svg width="20" height="20" viewBox="0 0 20 20" fill="none" xmlns="http://www.w3.org/2000/svg">
    <path d="M13.6165 1.16602H6.3915V2.16602H13.6165V1.16602ZM18.8332 6.59935C18.8332 5.01657 18.3241 3.65272 17.3957 2.68103C16.4654 1.70731 15.1505 1.16602 13.6165 1.16602V2.16602C14.9075 2.16602 15.9509 2.61639 16.6727 3.37184C17.3964 4.12931 17.8332 5.23212 17.8332 6.59935H18.8332ZM18.8332 13.4085V6.59935H17.8332V13.4085H18.8332ZM13.6165 18.8327C15.1504 18.8327 16.4652 18.2917 17.3955 17.3194C18.3239 16.3491 18.8332 14.9875 18.8332 13.4085H17.8332C17.8332 14.7712 17.3966 15.8717 16.6729 16.6281C15.9511 17.3825 14.9076 17.8327 13.6165 17.8327V18.8327ZM6.3915 18.8327H13.6165V17.8327H6.3915V18.8327ZM1.1665 13.4085C1.1665 14.9881 1.67826 16.3498 2.60879 17.3198C3.54106 18.2917 4.8577 18.8327 6.3915 18.8327V17.8327C5.10031 17.8327 4.05445 17.3824 3.33046 16.6276C2.60474 15.871 2.1665 14.7706 2.1665 13.4085H1.1665ZM1.1665 6.59935V13.4085H2.1665V6.59935H1.1665ZM6.3915 1.16602C4.85761 1.16602 3.54085 1.70723 2.60854 2.68057C1.67803 3.65205 1.1665 5.01596 1.1665 6.59935H2.1665C2.1665 5.23273 2.60497 4.12998 3.33071 3.37229C4.05466 2.61647 5.10039 2.16602 6.3915 2.16602V1.16602ZM8.77481 6.82518C8.77481 7.49635 9.31954 8.05018 9.99147 8.05018V7.05018C9.88007 7.05018 9.77481 6.95234 9.77481 6.82518H8.77481ZM10.0081 5.59185C9.32366 5.59185 8.77481 6.14071 8.77481 6.82518H9.77481C9.77481 6.69299 9.87595 6.59185 10.0081 6.59185V5.59185ZM11.2331 6.82518C11.2331 6.14444 10.688 5.59185 10.0081 5.59185V6.59185C10.1283 6.59185 10.2331 6.68926 10.2331 6.82518H11.2331ZM9.99147 8.05018C10.6772 8.05018 11.2331 7.50751 11.2331 6.82518H10.2331C10.2331 6.94118 10.1391 7.05018 9.99147 7.05018V8.05018ZM9.99154 14.3752C10.6723 14.3752 11.2249 13.83 11.2249 13.1502H10.2249C10.2249 13.2703 10.1275 13.3752 9.99154 13.3752V14.3752ZM8.76654 13.1502C8.76654 13.8263 9.31539 14.3752 9.99154 14.3752V13.3752C9.86768 13.3752 9.76654 13.274 9.76654 13.1502H8.76654ZM8.76654 9.46685V13.1502H9.76654V9.46685H8.76654ZM9.99154 8.23352C9.30837 8.23352 8.76654 8.79696 8.76654 9.46685H9.76654C9.76654 9.33508 9.87471 9.23352 9.99154 9.23352V8.23352ZM11.2249 9.46685C11.2249 8.79321 10.6793 8.23352 9.99154 8.23352V9.23352C10.1204 9.23352 10.2249 9.33882 10.2249 9.46685H11.2249ZM11.2249 13.1502V9.46685H10.2249V13.1502H11.2249Z" fill="#202D41" fill-opacity="0.5"/>
</svg>
