<svg width="21" height="20" viewBox="0 0 21 20" fill="none" xmlns="http://www.w3.org/2000/svg">
    <path d="M18.8334 10.0001C18.8334 5.40841 15.0917 1.66675 10.5 1.66675C5.90835 1.66675 2.16669 5.40841 2.16669 10.0001C2.16669 12.4167 3.20835 14.5917 4.85835 16.1167C4.85835 16.1251 4.85835 16.1251 4.85002 16.1334C4.93335 16.2167 5.03335 16.2834 5.11669 16.3584C5.16669 16.4001 5.20835 16.4417 5.25835 16.4751C5.40835 16.6001 5.57502 16.7167 5.73335 16.8334C5.79169 16.8751 5.84169 16.9084 5.90002 16.9501C6.05835 17.0584 6.22502 17.1584 6.40002 17.2501C6.45835 17.2834 6.52502 17.3251 6.58335 17.3584C6.75002 17.4501 6.92502 17.5334 7.10835 17.6084C7.17502 17.6417 7.24169 17.6751 7.30835 17.7001C7.49169 17.7751 7.67502 17.8417 7.85835 17.9001C7.92502 17.9251 7.99169 17.9501 8.05835 17.9667C8.25835 18.0251 8.45835 18.0751 8.65835 18.1251C8.71669 18.1417 8.77502 18.1584 8.84169 18.1667C9.07502 18.2167 9.30835 18.2501 9.55002 18.2751C9.58335 18.2751 9.61669 18.2834 9.65002 18.2917C9.93335 18.3167 10.2167 18.3334 10.5 18.3334C10.7834 18.3334 11.0667 18.3167 11.3417 18.2917C11.375 18.2917 11.4084 18.2834 11.4417 18.2751C11.6834 18.2501 11.9167 18.2167 12.15 18.1667C12.2084 18.1584 12.2667 18.1334 12.3334 18.1251C12.5334 18.0751 12.7417 18.0334 12.9334 17.9667C13 17.9417 13.0667 17.9167 13.1334 17.9001C13.3167 17.8334 13.5084 17.7751 13.6834 17.7001C13.75 17.6751 13.8167 17.6417 13.8834 17.6084C14.0584 17.5334 14.2334 17.4501 14.4084 17.3584C14.475 17.3251 14.5334 17.2834 14.5917 17.2501C14.7584 17.1501 14.925 17.0584 15.0917 16.9501C15.15 16.9167 15.2 16.8751 15.2584 16.8334C15.425 16.7167 15.5834 16.6001 15.7334 16.4751C15.7834 16.4334 15.825 16.3917 15.875 16.3584C15.9667 16.2834 16.0584 16.2084 16.1417 16.1334C16.1417 16.1251 16.1417 16.1251 16.1334 16.1167C17.7917 14.5917 18.8334 12.4167 18.8334 10.0001ZM14.6167 14.1417C12.3584 12.6251 8.65835 12.6251 6.38335 14.1417C6.01669 14.3834 5.71669 14.6667 5.46669 14.9751C4.20002 13.6917 3.41669 11.9334 3.41669 10.0001C3.41669 6.09175 6.59169 2.91675 10.5 2.91675C14.4084 2.91675 17.5834 6.09175 17.5834 10.0001C17.5834 11.9334 16.8 13.6917 15.5334 14.9751C15.2917 14.6667 14.9834 14.3834 14.6167 14.1417Z" fill="#2563EB"/>
    <path d="M10.5 5.7749C8.775 5.7749 7.375 7.1749 7.375 8.8999C7.375 10.5916 8.7 11.9666 10.4583 12.0166C10.4833 12.0166 10.5167 12.0166 10.5333 12.0166C10.55 12.0166 10.575 12.0166 10.5917 12.0166C10.6 12.0166 10.6083 12.0166 10.6083 12.0166C12.2917 11.9582 13.6167 10.5916 13.625 8.8999C13.625 7.1749 12.225 5.7749 10.5 5.7749Z" fill="#2563EB"/>
</svg>