<svg width="11" height="11" viewBox="0 0 11 11" fill="none" xmlns="http://www.w3.org/2000/svg">
    <path d="M3.50575 9.50709H7.96803C9.14322 9.50709 9.61159 8.7875 9.66694 7.91037L9.88835 4.39334C9.94796 3.47363 9.2156 2.69444 8.29163 2.69444C8.0319 2.69444 7.79346 2.54541 7.67424 2.31548L7.36767 1.69808C7.1718 1.31062 6.66086 0.991272 6.22655 0.991272H5.25149C4.81292 0.991272 4.30197 1.31062 4.10611 1.69808L3.79954 2.31548C3.68032 2.54541 3.44188 2.69444 3.18214 2.69444C2.25818 2.69444 1.52582 3.47363 1.58543 4.39334L1.80684 7.91037C1.85794 8.7875 2.33056 9.50709 3.50575 9.50709Z" stroke="white" stroke-width="0.766423" stroke-linecap="round" stroke-linejoin="round"/>
    <path d="M5.09814 3.54602H6.37552" stroke="white" stroke-width="0.766423" stroke-linecap="round" stroke-linejoin="round"/>
    <path d="M5.73685 7.80383C6.49901 7.80383 7.12067 7.18218 7.12067 6.42001C7.12067 5.65785 6.49901 5.03619 5.73685 5.03619C4.97468 5.03619 4.35303 5.65785 4.35303 6.42001C4.35303 7.18218 4.97468 7.80383 5.73685 7.80383Z" stroke="white" stroke-width="0.766423" stroke-linecap="round" stroke-linejoin="round"/>
</svg>
