<svg width="108" height="50" viewBox="0 0 108 50" fill="none" xmlns="http://www.w3.org/2000/svg">
    <circle cx="25" cy="25" r="25" fill="#2563EB"/>
    <path d="M22.1302 31.5386C21.7531 31.5386 21.3949 31.3926 21.1309 31.1372L15.7948 25.9739C15.2479 25.4448 15.2479 24.5691 15.7948 24.04C16.3416 23.5109 17.2466 23.5109 17.7934 24.04L22.1302 28.2363L31.822 18.8585C32.3688 18.3294 33.2739 18.3294 33.8207 18.8585C34.3675 19.3876 34.3675 20.2633 33.8207 20.7924L23.1296 31.1372C22.8656 31.3926 22.5073 31.5386 22.1302 31.5386Z" fill="white"/>
    <path d="M71.64 21.46V19H60V21.46H64.46V32.4H67.18V21.46H71.64Z" fill="#2563EB"/>
    <path d="M76.0445 22.18C74.5245 22.18 73.2245 22.68 72.1845 23.66C71.1245 24.64 70.6045 25.9 70.6045 27.42C70.6045 28.96 71.1245 30.22 72.1845 31.2C73.2245 32.18 74.5245 32.66 76.0445 32.66C77.5245 32.66 78.8045 32.18 79.8445 31.2C80.8845 30.22 81.4245 28.96 81.4245 27.42C81.4245 25.9 80.8845 24.64 79.8445 23.66C78.8045 22.68 77.5245 22.18 76.0445 22.18ZM76.0445 30.4C75.2845 30.4 74.6045 30.14 74.0245 29.58C73.4445 29.04 73.1645 28.32 73.1645 27.42C73.1645 26.54 73.4445 25.82 74.0245 25.26C74.6045 24.72 75.2845 24.44 76.0445 24.44C76.7645 24.44 77.4245 24.72 78.0045 25.28C78.5645 25.84 78.8645 26.54 78.8645 27.42C78.8645 28.3 78.5645 29.02 78.0045 29.58C77.4245 30.14 76.7645 30.4 76.0445 30.4Z" fill="#2563EB"/>
    <path d="M83.1763 19V32.4H88.1163C90.3163 32.4 92.0962 31.8 93.4562 30.56C94.7962 29.32 95.4762 27.7 95.4762 25.7C95.4762 23.7 94.7962 22.1 93.4562 20.86C92.0962 19.62 90.3163 19 88.1163 19H83.1763ZM85.8963 29.94V21.46H88.1163C89.5163 21.46 90.6363 21.86 91.4763 22.62C92.3162 23.38 92.7362 24.42 92.7362 25.7C92.7362 27 92.3162 28.04 91.4763 28.8C90.6363 29.56 89.5163 29.94 88.1163 29.94H85.8963Z" fill="#2563EB"/>
    <path d="M102.068 22.18C100.548 22.18 99.2484 22.68 98.2084 23.66C97.1484 24.64 96.6284 25.9 96.6284 27.42C96.6284 28.96 97.1484 30.22 98.2084 31.2C99.2484 32.18 100.548 32.66 102.068 32.66C103.548 32.66 104.828 32.18 105.868 31.2C106.908 30.22 107.448 28.96 107.448 27.42C107.448 25.9 106.908 24.64 105.868 23.66C104.828 22.68 103.548 22.18 102.068 22.18ZM102.068 30.4C101.308 30.4 100.628 30.14 100.048 29.58C99.4684 29.04 99.1884 28.32 99.1884 27.42C99.1884 26.54 99.4684 25.82 100.048 25.26C100.628 24.72 101.308 24.44 102.068 24.44C102.788 24.44 103.448 24.72 104.028 25.28C104.588 25.84 104.888 26.54 104.888 27.42C104.888 28.3 104.588 29.02 104.028 29.58C103.448 30.14 102.788 30.4 102.068 30.4Z" fill="#2563EB"/>
</svg>
