<svg width="20" height="20" viewBox="0 0 20 20" fill="none" xmlns="http://www.w3.org/2000/svg">
    <path d="M18.3333 7.10008V3.31675C18.3333 2.14175 17.8 1.66675 16.475 1.66675H13.1083C11.7833 1.66675 11.25 2.14175 11.25 3.31675V7.09175C11.25 8.27508 11.7833 8.74175 13.1083 8.74175H16.475C17.8 8.75008 18.3333 8.27508 18.3333 7.10008Z" fill="#202D41" fill-opacity="0.4"/>
    <path d="M18.3333 16.475V13.1083C18.3333 11.7833 17.8 11.25 16.475 11.25H13.1083C11.7833 11.25 11.25 11.7833 11.25 13.1083V16.475C11.25 17.8 11.7833 18.3333 13.1083 18.3333H16.475C17.8 18.3333 18.3333 17.8 18.3333 16.475Z" fill="#202D41" fill-opacity="0.4"/>
    <path d="M8.74996 7.10008V3.31675C8.74996 2.14175 8.21663 1.66675 6.89163 1.66675H3.52496C2.19996 1.66675 1.66663 2.14175 1.66663 3.31675V7.09175C1.66663 8.27508 2.19996 8.74175 3.52496 8.74175H6.89163C8.21663 8.75008 8.74996 8.27508 8.74996 7.10008Z" fill="#202D41" fill-opacity="0.4"/>
    <path d="M8.74996 16.475V13.1083C8.74996 11.7833 8.21663 11.25 6.89163 11.25H3.52496C2.19996 11.25 1.66663 11.7833 1.66663 13.1083V16.475C1.66663 17.8 2.19996 18.3333 3.52496 18.3333H6.89163C8.21663 18.3333 8.74996 17.8 8.74996 16.475Z" fill="#202D41" fill-opacity="0.4"/>
</svg>
