<svg width="21" height="20" viewBox="0 0 21 20" fill="none" xmlns="http://www.w3.org/2000/svg">
    <path d="M18.8333 9.99999C18.8333 5.40832 15.0917 1.66666 10.5 1.66666C5.90832 1.66666 2.16666 5.40832 2.16666 9.99999C2.16666 12.4167 3.20832 14.5917 4.85832 16.1167C4.85832 16.125 4.85832 16.125 4.84999 16.1333C4.93332 16.2167 5.03332 16.2833 5.11666 16.3583C5.16666 16.4 5.20832 16.4417 5.25832 16.475C5.40832 16.6 5.57499 16.7167 5.73332 16.8333C5.79166 16.875 5.84166 16.9083 5.89999 16.95C6.05832 17.0583 6.22499 17.1583 6.39999 17.25C6.45832 17.2833 6.52499 17.325 6.58332 17.3583C6.74999 17.45 6.92499 17.5333 7.10832 17.6083C7.17499 17.6417 7.24166 17.675 7.30832 17.7C7.49166 17.775 7.67499 17.8417 7.85832 17.9C7.92499 17.925 7.99166 17.95 8.05832 17.9667C8.25832 18.025 8.45832 18.075 8.65832 18.125C8.71666 18.1417 8.77499 18.1583 8.84166 18.1667C9.07499 18.2167 9.30832 18.25 9.54999 18.275C9.58332 18.275 9.61666 18.2833 9.64999 18.2917C9.93332 18.3167 10.2167 18.3333 10.5 18.3333C10.7833 18.3333 11.0667 18.3167 11.3417 18.2917C11.375 18.2917 11.4083 18.2833 11.4417 18.275C11.6833 18.25 11.9167 18.2167 12.15 18.1667C12.2083 18.1583 12.2667 18.1333 12.3333 18.125C12.5333 18.075 12.7417 18.0333 12.9333 17.9667C13 17.9417 13.0667 17.9167 13.1333 17.9C13.3167 17.8333 13.5083 17.775 13.6833 17.7C13.75 17.675 13.8167 17.6417 13.8833 17.6083C14.0583 17.5333 14.2333 17.45 14.4083 17.3583C14.475 17.325 14.5333 17.2833 14.5917 17.25C14.7583 17.15 14.925 17.0583 15.0917 16.95C15.15 16.9167 15.2 16.875 15.2583 16.8333C15.425 16.7167 15.5833 16.6 15.7333 16.475C15.7833 16.4333 15.825 16.3917 15.875 16.3583C15.9667 16.2833 16.0583 16.2083 16.1417 16.1333C16.1417 16.125 16.1417 16.125 16.1333 16.1167C17.7917 14.5917 18.8333 12.4167 18.8333 9.99999ZM14.6167 14.1417C12.3583 12.625 8.65832 12.625 6.38332 14.1417C6.01666 14.3833 5.71666 14.6667 5.46666 14.975C4.19999 13.6917 3.41666 11.9333 3.41666 9.99999C3.41666 6.09166 6.59166 2.91666 10.5 2.91666C14.4083 2.91666 17.5833 6.09166 17.5833 9.99999C17.5833 11.9333 16.8 13.6917 15.5333 14.975C15.2917 14.6667 14.9833 14.3833 14.6167 14.1417Z" fill="#202D41" fill-opacity="0.4"/>
    <path d="M10.5 5.77499C8.775 5.77499 7.375 7.17499 7.375 8.89999C7.375 10.5917 8.7 11.9667 10.4583 12.0167C10.4833 12.0167 10.5167 12.0167 10.5333 12.0167C10.55 12.0167 10.575 12.0167 10.5917 12.0167C10.6 12.0167 10.6083 12.0167 10.6083 12.0167C12.2917 11.9583 13.6167 10.5917 13.625 8.89999C13.625 7.17499 12.225 5.77499 10.5 5.77499Z" fill="#202D41" fill-opacity="0.4"/>
</svg>
