<svg width="20" height="20" viewBox="0 0 20 20" fill="none" xmlns="http://www.w3.org/2000/svg">
    <path d="M15.9261 9.22L15.6183 8.82595L15.3857 9.0076L15.4324 9.29899L15.9261 9.22ZM17.6161 7.9L17.9239 8.29407L17.9284 8.29043L17.6161 7.9ZM17.7161 7.39L18.158 7.15606L18.1537 7.1479L18.1491 7.13991L17.7161 7.39ZM16.1161 4.62L15.679 4.86286L15.6831 4.87009L16.1161 4.62ZM15.6261 4.44L15.468 3.96566L15.4536 3.97044L15.4396 3.97608L15.6261 4.44ZM13.6361 5.24L13.3331 5.63772L13.559 5.80987L13.8226 5.70392L13.6361 5.24ZM12.2861 4.46L11.791 4.53006L11.8313 4.8144L12.0971 4.92292L12.2861 4.46ZM11.9861 2.34L12.4812 2.26994L12.4806 2.26583L11.9861 2.34ZM7.99609 2.34L7.50161 2.26583L7.50102 2.26994L7.99609 2.34ZM7.69609 4.46L7.88504 4.92292L8.15092 4.8144L8.19116 4.53006L7.69609 4.46ZM6.34609 5.24L6.15959 5.70392L6.42203 5.80942L6.64765 5.63883L6.34609 5.24ZM4.35609 4.44L4.5426 3.97605L4.53731 3.974L4.35609 4.44ZM3.86609 4.62L4.29911 4.87012L4.30317 4.86282L3.86609 4.62ZM2.26609 7.39L1.83307 7.13988L1.82901 7.14718L2.26609 7.39ZM2.36609 7.9L2.67393 7.50588L2.66609 7.5L2.36609 7.9ZM4.05609 9.22L4.54981 9.29899L4.59643 9.0076L4.36387 8.82595L4.05609 9.22ZM4.04609 10.78L4.35387 11.174L4.58643 10.9924L4.53981 10.701L4.04609 10.78ZM2.35609 12.1L2.04829 11.7059L2.04374 11.7096L2.35609 12.1ZM2.25609 12.61L1.8142 12.8439L1.81851 12.8521L1.82313 12.8601L2.25609 12.61ZM3.85609 15.38L4.29323 15.1371L4.28905 15.1299L3.85609 15.38ZM4.34609 15.56L4.50421 16.0343L4.51856 16.0296L4.53259 16.0239L4.34609 15.56ZM6.33609 14.76L6.63911 14.3623L6.41316 14.1901L6.14959 14.2961L6.33609 14.76ZM7.68609 15.54L8.18116 15.4699L8.14092 15.1856L7.87504 15.0771L7.68609 15.54ZM7.98609 17.66L7.49102 17.7301L7.49301 17.7441L7.4958 17.7581L7.98609 17.66ZM11.9761 17.66L11.481 17.5899L11.4796 17.6001L11.4786 17.6102L11.9761 17.66ZM12.2761 15.54L12.0871 15.0771L11.8213 15.1856L11.781 15.4699L12.2761 15.54ZM13.6261 14.76L13.8126 14.2961L13.5502 14.1906L13.3245 14.3612L13.6261 14.76ZM15.6161 15.56L15.4296 16.0239L15.4349 16.026L15.6161 15.56ZM16.1061 15.38L15.6731 15.1299L15.669 15.1372L16.1061 15.38ZM17.7061 12.61L18.1391 12.8601L18.1432 12.8528L17.7061 12.61ZM17.6061 12.1L17.2959 12.4924L17.3061 12.5L17.6061 12.1ZM16.4325 10.8396C16.4643 10.5751 16.4861 10.2946 16.4861 10H15.4861C15.4861 10.2454 15.4679 10.4849 15.4397 10.7204L16.4325 10.8396ZM16.4861 10C16.4861 9.70528 16.4643 9.41879 16.4198 9.141L15.4324 9.29899C15.4679 9.52121 15.4861 9.75472 15.4861 10H16.4861ZM16.2339 9.61405L17.9239 8.29405L17.3083 7.50595L15.6183 8.82595L16.2339 9.61405ZM17.9284 8.29043C18.2761 8.01233 18.3542 7.52663 18.158 7.15606L17.2742 7.62394C17.2633 7.60328 17.2622 7.58433 17.265 7.56958C17.268 7.55424 17.278 7.5302 17.3037 7.50957L17.9284 8.29043ZM18.1491 7.13991L16.5491 4.36991L15.6831 4.87009L17.2831 7.64009L18.1491 7.13991ZM16.5532 4.37718C16.3196 3.95681 15.842 3.84099 15.468 3.96566L15.7842 4.91434C15.7731 4.91806 15.758 4.9195 15.7389 4.91297C15.7162 4.9052 15.6924 4.88697 15.679 4.86282L16.5532 4.37718ZM15.4396 3.97608L13.4496 4.77608L13.8226 5.70392L15.8126 4.90392L15.4396 3.97608ZM13.9391 4.84228C13.488 4.49857 13.01 4.21544 12.475 3.99708L12.0971 4.92292C12.5422 5.10456 12.9442 5.34143 13.3331 5.63772L13.9391 4.84228ZM12.7812 4.38994L12.4812 2.26994L11.491 2.41006L11.791 4.53006L12.7812 4.38994ZM12.4806 2.26583C12.4124 1.81151 12.0238 1.5 11.5861 1.5V2.5C11.5683 2.5 11.5467 2.49339 11.5278 2.47746C11.5081 2.4609 11.4951 2.43724 11.4916 2.41417L12.4806 2.26583ZM11.5861 1.5H8.38609V2.5H11.5861V1.5ZM8.38609 1.5C7.93282 1.5 7.56747 1.82682 7.50162 2.26583L8.49056 2.41417C8.48846 2.42819 8.4792 2.45156 8.45611 2.47171C8.43273 2.49212 8.40558 2.5 8.38609 2.5V1.5ZM7.50102 2.26994L7.20102 4.38994L8.19116 4.53006L8.49116 2.41006L7.50102 2.26994ZM7.50714 3.99708C6.97065 4.21605 6.48321 4.50949 6.04454 4.84117L6.64765 5.63883C7.02897 5.35051 7.44154 5.10395 7.88504 4.92292L7.50714 3.99708ZM6.53259 4.77608L4.54259 3.97608L4.16959 4.90392L6.15959 5.70392L6.53259 4.77608ZM4.53731 3.974C4.12719 3.81451 3.65183 3.97611 3.42901 4.37718L4.30317 4.86282C4.28036 4.90389 4.22499 4.92549 4.17487 4.906L4.53731 3.974ZM3.43313 4.36991L1.83313 7.13991L2.69905 7.64009L4.29905 4.87009L3.43313 4.36991ZM1.82901 7.14718C1.6155 7.5315 1.69356 8.0206 2.06609 8.3L2.66609 7.5C2.68504 7.51421 2.70319 7.54016 2.7094 7.57206C2.71539 7.60288 2.70769 7.62469 2.70317 7.63282L1.82901 7.14718ZM2.05831 8.29405L3.74831 9.61405L4.36387 8.82595L2.67387 7.50595L2.05831 8.29405ZM3.56237 9.141C3.52 9.4058 3.48609 9.70412 3.48609 10H4.48609C4.48609 9.77588 4.51218 9.5342 4.54981 9.29899L3.56237 9.141ZM3.48609 10C3.48609 10.2842 3.50785 10.5807 3.55237 10.859L4.53981 10.701C4.50433 10.4793 4.48609 10.2358 4.48609 10H3.48609ZM3.73831 10.386L2.04831 11.706L2.66387 12.494L4.35387 11.174L3.73831 10.386ZM2.04374 11.7096C1.69612 11.9877 1.61801 12.4734 1.8142 12.8439L2.69799 12.3761C2.70893 12.3967 2.70997 12.4157 2.70714 12.4304C2.7042 12.4458 2.69423 12.4698 2.66844 12.4904L2.04374 11.7096ZM1.82313 12.8601L3.42313 15.6301L4.28905 15.1299L2.68905 12.3599L1.82313 12.8601ZM3.41901 15.6228C3.65255 16.0432 4.13019 16.159 4.50421 16.0343L4.18798 15.0857C4.19913 15.0819 4.21421 15.0805 4.23325 15.087C4.25594 15.0948 4.27975 15.113 4.29317 15.1372L3.41901 15.6228ZM4.53259 16.0239L6.52259 15.2239L6.14959 14.2961L4.15959 15.0961L4.53259 16.0239ZM6.03307 15.1577C6.4842 15.5014 6.96215 15.7846 7.49714 16.0029L7.87504 15.0771C7.43003 14.8954 7.02799 14.6586 6.63911 14.3623L6.03307 15.1577ZM7.19102 15.6101L7.49102 17.7301L8.48116 17.5899L8.18116 15.4699L7.19102 15.6101ZM7.4958 17.7581C7.57879 18.173 7.9291 18.5 8.38609 18.5V17.5C8.40639 17.5 8.43158 17.5083 8.45149 17.5254C8.4703 17.5415 8.47548 17.5574 8.47638 17.5619L7.4958 17.7581ZM8.38609 18.5H11.5861V17.5H8.38609V18.5ZM11.5861 18.5C12.0184 18.5 12.4257 18.1891 12.4736 17.7098L11.4786 17.6102C11.4818 17.5775 11.4992 17.5459 11.5232 17.5254C11.5456 17.5062 11.5691 17.5 11.5861 17.5V18.5ZM12.4712 17.7301L12.7712 15.6101L11.781 15.4699L11.481 17.5899L12.4712 17.7301ZM12.465 16.0029C13.0015 15.7839 13.489 15.4905 13.9276 15.1588L13.3245 14.3612C12.9432 14.6495 12.5306 14.8961 12.0871 15.0771L12.465 16.0029ZM13.4396 15.2239L15.4296 16.0239L15.8026 15.0961L13.8126 14.2961L13.4396 15.2239ZM15.4349 16.026C15.845 16.1855 16.3204 16.0239 16.5432 15.6228L15.669 15.1372C15.6918 15.0961 15.7472 15.0745 15.7973 15.094L15.4349 16.026ZM16.5391 15.6301L18.1391 12.8601L17.2731 12.3599L15.6731 15.1299L16.5391 15.6301ZM18.1432 12.8528C18.3567 12.4685 18.2786 11.9794 17.9061 11.7L17.3061 12.5C17.2871 12.4858 17.269 12.4598 17.2628 12.4279C17.2568 12.3971 17.2645 12.3753 17.269 12.3672L18.1432 12.8528ZM17.9161 11.7077L16.2461 10.3877L15.626 11.1723L17.296 12.4923L17.9161 11.7077ZM9.98609 12.5C8.61223 12.5 7.48609 11.3739 7.48609 10H6.48609C6.48609 11.9261 8.05995 13.5 9.98609 13.5V12.5ZM7.48609 10C7.48609 8.62614 8.61223 7.5 9.98609 7.5V6.5C8.05995 6.5 6.48609 8.07386 6.48609 10H7.48609ZM9.98609 7.5C11.3599 7.5 12.4861 8.62614 12.4861 10H13.4861C13.4861 8.07386 11.9122 6.5 9.98609 6.5V7.5ZM12.4861 10C12.4861 11.3739 11.3599 12.5 9.98609 12.5V13.5C11.9122 13.5 13.4861 11.9261 13.4861 10H12.4861Z" fill="#202D41" fill-opacity="0.5"/>
</svg>
